<svg width="24" height="25" viewBox="0 0 24 25" fill="none" xmlns="http://www.w3.org/2000/svg">
<path d="M10.8 3.93181L4.8 8.56039C4.55161 8.752 4.35 9.00047 4.21115 9.28612C4.07229 9.57176 4 9.88674 4 10.2061V19.4632C4 20.0088 4.21071 20.5321 4.58579 20.9179C4.96086 21.3037 5.46957 21.5204 6 21.5204H18C18.5304 21.5204 19.0391 21.3037 19.4142 20.9179C19.7893 20.5321 20 20.0088 20 19.4632V10.2061C20 9.88674 19.9277 9.57176 19.7889 9.28612C19.65 9.00047 19.4484 8.752 19.2 8.56039L13.2 3.93181C12.8538 3.66475 12.4327 3.52039 12 3.52039C11.5673 3.52039 11.1462 3.66475 10.8 3.93181ZM10 20.4918H8C7.73478 20.4918 7.48043 20.3834 7.29289 20.1906C7.10536 19.9977 7 19.736 7 19.4632V17.4061C7 17.1333 7.10536 16.8717 7.29289 16.6788C7.48043 16.4859 7.73478 16.3775 8 16.3775H10C10.2652 16.3775 10.5196 16.4859 10.7071 16.6788C10.8946 16.8717 11 17.1333 11 17.4061V19.4632C11 19.736 10.8946 19.9977 10.7071 20.1906C10.5196 20.3834 10.2652 20.4918 10 20.4918ZM10 14.3204H8C7.73478 14.3204 7.48043 14.212 7.29289 14.0191C7.10536 13.8262 7 13.5646 7 13.2918V11.2347C7 10.9619 7.10536 10.7003 7.29289 10.5074C7.48043 10.3145 7.73478 10.2061 8 10.2061H10C10.2652 10.2061 10.5196 10.3145 10.7071 10.5074C10.8946 10.7003 11 10.9619 11 11.2347V13.2918C11 13.5646 10.8946 13.8262 10.7071 14.0191C10.5196 14.212 10.2652 14.3204 10 14.3204ZM16 20.4918H14C13.7348 20.4918 13.4804 20.3834 13.2929 20.1906C13.1054 19.9977 13 19.736 13 19.4632V17.4061C13 17.1333 13.1054 16.8717 13.2929 16.6788C13.4804 16.4859 13.7348 16.3775 14 16.3775H16C16.2652 16.3775 16.5196 16.4859 16.7071 16.6788C16.8946 16.8717 17 17.1333 17 17.4061V19.4632C17 19.736 16.8946 19.9977 16.7071 20.1906C16.5196 20.3834 16.2652 20.4918 16 20.4918Z" fill="white"/>
</svg>
