<svg width="30" height="29" viewBox="0 0 30 29" fill="none" xmlns="http://www.w3.org/2000/svg">
<path d="M1.01121 15.4953C-0.950116 5.6686 7.03417 2.13543 10.5489 1.42412C21.1496 -0.726202 29.1552 4.37103 29.1552 13.2142C29.1552 22.0574 26.2153 26.971 16.4226 27.9516C6.62952 28.9347 2.97008 25.322 1.01121 15.4953Z" fill="#DD0E23"/>
<path d="M12.986 11.5665C12.8597 10.9335 13.3738 10.706 13.6001 10.66C14.2827 10.5215 14.7985 10.8499 14.7985 11.4193C14.7985 11.9888 14.6091 12.3053 13.9785 12.3684C13.348 12.432 13.1123 12.1991 12.986 11.5665Z" fill="white"/>
<path d="M4.61651 15.5195C4.50008 14.2338 4.65382 12.6927 4.6944 12.286C4.81084 11.1172 5.28641 10.5502 6.16007 10.5502C7.32481 10.5502 7.42197 12.9485 8.61623 12.9485C9.81008 12.9485 9.56738 10.4919 11.0818 10.4919C12.2179 10.4919 12.1884 11.507 12.3052 12.559C12.4015 13.4302 12.4216 15.1694 12.3052 15.8462C12.1715 16.6235 11.9264 17.1979 11.1405 17.1979C10.3541 17.1979 10.364 16.542 10.364 15.8704C10.364 15.1989 10.3886 13.9128 10.3886 13.9128C10.3886 13.9128 9.45135 15.1669 8.46126 15.1669C7.47117 15.1669 6.5393 13.7057 6.5393 13.7057V15.8971C6.5393 16.8322 6.30643 17.1828 5.60742 17.1828C4.90759 17.1828 4.72966 16.7703 4.61651 15.5195Z" fill="white"/>
<path d="M14.8431 16.2202C14.8431 16.9536 14.4405 17.1824 13.8776 17.1824C13.3147 17.1824 12.9121 16.9532 12.9121 16.2202L12.8584 14.1859C12.8584 13.4524 13.3147 12.858 13.8776 12.858C14.4405 12.858 14.8968 13.4524 14.8968 14.1859L14.8431 16.2202Z" fill="white"/>
<path d="M17.5999 19.9223C17.0915 19.8845 16.7844 19.5762 16.7844 19.1039C16.7844 18.6316 17.0686 18.266 17.5101 18.2856L17.9684 18.3065C18.3682 18.3246 18.7695 18.4771 18.7695 19.1039C18.7691 19.6623 18.4043 19.9821 17.5999 19.9223ZM17.1194 14.1949C17.3912 14.0391 17.8315 14.1031 17.8315 14.1031C18.1948 14.1195 18.5592 14.4433 18.5592 14.8275C18.5592 15.2112 18.2763 15.5355 17.9131 15.5519L17.4966 15.5708C17.0956 15.5892 16.7188 15.3982 16.6922 14.8964C16.6729 14.5257 16.8476 14.3507 17.1194 14.1949ZM18.749 17.1225L17.5482 17.0766C17.5454 17.0664 17.5429 17.0561 17.5429 17.0459C17.5429 16.9774 17.6142 16.9036 17.7266 16.8692L18.1624 16.8495H18.3346V16.8417L18.592 16.8302C19.628 16.7831 20.4336 15.8594 20.4336 14.7652C20.4336 14.5056 20.3746 14.2564 20.2721 14.0256C20.6226 13.9042 20.7391 13.6427 20.7391 13.2401C20.7391 12.7276 20.2319 12.432 19.5596 12.5566C19.4247 12.5816 19.1857 12.6669 19.0459 12.8567C18.8249 12.7657 18.592 12.7108 18.3596 12.7001C18.3596 12.7001 17.5851 12.5976 16.8082 12.7534C16.0317 12.9092 15.154 13.5541 15.2929 14.9156C15.3795 15.7655 15.7443 16.3481 16.2896 16.6486C16.2183 16.7728 16.1773 16.9065 16.1773 17.0459C16.1773 17.1943 16.1945 17.3279 16.2252 17.4501C15.7583 17.8133 15.4893 18.3955 15.4344 19.0088C15.3421 20.0436 15.7206 20.7402 17.0021 20.9738C18.0906 21.1723 19.0213 20.9738 19.0213 20.9738C20.2856 20.6631 20.8075 19.9469 20.8075 19.1039C20.8084 17.7863 19.8683 17.1656 18.749 17.1225Z" fill="white"/>
<path d="M23.3073 15.7581C22.6768 15.8213 22.441 15.5888 22.3147 14.9558C22.1885 14.3228 22.7026 14.0953 22.9289 14.0494C23.6115 13.9108 24.1273 14.2392 24.1273 14.8086C24.1273 15.3781 23.9383 15.695 23.3073 15.7581ZM22.5394 12.5542C21.9322 12.6772 20.5527 13.2876 20.8917 14.9853C21.2304 16.683 21.8625 17.3074 23.5545 17.1373C25.2465 16.968 25.7544 16.1189 25.7544 14.5909C25.754 13.0634 24.3712 12.1823 22.5394 12.5542Z" fill="white"/>
</svg>
